<?xml version="1.0" ?><svg enable-background="new 0 0 64 64" version="1.1" viewBox="0 0 64 64" xml:space="preserve" xmlns="http://www.w3.org/2000/svg" xmlns:xlink="http://www.w3.org/1999/xlink"><g id="Layer_1"/><g id="icon"><path d="M46.798,23.335h-0.232V21.05c0-3.488-1.356-6.765-3.819-9.227c-2.462-2.463-5.738-3.819-9.227-3.819   c-7.193,0-13.046,5.853-13.046,13.046v2.285h-0.232c-2.287,0-4.148,1.861-4.148,4.148v24.366c0,2.287,1.861,4.148,4.148,4.148   h26.557c2.287,0,4.148-1.861,4.148-4.148V27.483C50.946,25.196,49.085,23.335,46.798,23.335z M22.473,21.05   c0-6.091,4.955-11.046,11.046-11.046c2.954,0,5.729,1.148,7.813,3.233c2.085,2.084,3.233,4.858,3.233,7.813v2.285H22.473V21.05z    M48.946,51.849c0,1.185-0.964,2.148-2.148,2.148H20.241c-1.185,0-2.148-0.964-2.148-2.148V27.483c0-1.185,0.964-2.148,2.148-2.148   h0.232h26.092h0.232c1.185,0,2.148,0.964,2.148,2.148V51.849z"/><path d="M36.531,36.655c0-1.925-1.807-3.429-3.818-2.907c-1.022,0.265-1.852,1.109-2.108,2.133   c-0.302,1.206,0.127,2.32,0.928,3.022c0.306,0.268,0.48,0.654,0.48,1.061v4.219c0,0.832,0.674,1.506,1.506,1.506   s1.506-0.674,1.506-1.506v-4.219c0-0.401,0.165-0.788,0.469-1.051C36.127,38.364,36.531,37.56,36.531,36.655z"/></g></svg>